<?xml version="1.0" encoding="UTF-8"?>
<svg id="Layer_2" data-name="Layer 2" xmlns="http://www.w3.org/2000/svg" viewBox="0 0 282.22 211.79">
  <defs>
    <style>
      .cls-1 {
        fill: #ef7326;
      }

      .cls-2 {
        fill: #ffcc34;
      }

      .cls-3 {
        fill: #fff;
      }

      .cls-4 {
        fill: #9a2481;
      }
    </style>
  </defs>
  <g id="Layer_1-2" data-name="Layer 1">
    <g>
      <g>
        <path class="cls-3" d="M73.12,1.55v98.43h-17.02v-49.92H17.01v49.92H0V1.55h17.01v45.28h39.09V1.55h17.02Z"/>
        <path class="cls-3" d="M87.18,99.99V1.55h17.01v98.43h-17.01Z"/>
        <path class="cls-3" d="M192.09,86.49c-3.19,2.06-6.47,3.56-9.85,4.5-3.37.94-6.7,1.4-9.98,1.4-5.72,0-11.27-1.33-16.67-4-5.39-2.67-10.17-6.51-14.34-11.53-4.18-5.02-7.53-11.07-10.05-18.14-2.53-7.08-3.8-15.03-3.8-23.83,0-9.66,2.11-17.08,6.33-22.3,4.22-5.2,10.12-7.79,17.72-7.79,5.62,0,11.99,1.5,19.12,4.49,7.13,3,14.95,7.74,23.49,14.21l.14-19.41c-2.25-.56-4.83-1.08-7.74-1.54-2.91-.47-5.93-.89-9.06-1.27-3.14-.38-6.35-.68-9.64-.92-3.28-.24-6.47-.36-9.56-.36-7.13,0-13.41,1.41-18.85,4.22-5.44,2.82-9.98,6.49-13.64,11.05-3.65,4.54-6.39,9.76-8.22,15.67-1.83,5.91-2.79,11.95-2.89,18.14-.09,9.38,1.27,17.39,4.08,24.05,2.81,6.65,6.47,12.09,10.97,16.31,4.5,4.22,9.58,7.29,15.25,9.2,5.67,1.93,11.37,2.89,17.08,2.89,3.56,0,7.01-.34,10.33-1.06,3.33-.7,6.47-1.71,9.43-3.03,2.95-1.3,5.62-2.9,8.01-4.78,2.34-1.83,4.3-3.9,5.88-6.18h-3.55Z"/>
        <path class="cls-3" d="M281.38,1.55v98.43h-17.01v-49.92h-39.09v49.92h-17.01V1.55h17.01v45.28h39.09V1.55h17.01Z"/>
        <path class="cls-3" d="M61.45,194.78v17.01H0v-98.43h17.01v95.2c4.22,0,8.18-.3,11.88-.91,3.7-.61,7.31-1.52,10.83-2.74,3.52-1.22,7.03-2.67,10.55-4.36,3.52-1.69,7.19-3.61,11.04-5.77h.14Z"/>
        <path class="cls-3" d="M87.18,211.79v-115.82h17.01v115.82h-17.01Z"/>
        <path class="cls-3" d="M194.29,113.36v17.02c-3.84-2.16-7.48-4.08-10.9-5.77-3.42-1.69-6.87-3.12-10.34-4.29-3.47-1.17-7.01-2.08-10.62-2.74-3.61-.65-19.84-.98-24.06-.98v95.2h-17.01v-98.43h72.93Z"/>
        <path class="cls-3" d="M282.22,194.78v17.01h-73.97v-98.43h73.12v17.02c-3.84-2.16-7.48-4.08-10.9-5.77-3.42-1.69-6.87-3.12-10.34-4.29-3.47-1.17-7.01-2.08-10.62-2.74-3.61-.65-20.04-.98-24.26-.98v91.97c4.22,0,20.69-.3,24.4-.91,3.7-.61,7.31-1.52,10.83-2.74,3.51-1.22,7.03-2.67,10.55-4.36s7.19-3.61,11.04-5.77h.14Z"/>
      </g>
      <path class="cls-2" d="M195.74,44.58v41.77s-.06.1-.1.14h-3.55c-1.6-4.5-3.34-9.1-5.21-13.78-1.59-4.13-3.47-8.66-5.62-13.58-2.16-4.92-4.46-9.78-6.89-14.55h21.37Z"/>
      <polygon class="cls-1" points="155.9 161.87 180.51 154.56 180.51 170.87 155.9 163.56 155.9 161.87"/>
      <polygon class="cls-4" points="242.91 163.42 242.91 161.87 267.51 154.56 267.51 170.73 242.91 163.42"/>
    </g>
  </g>
</svg>