<?xml version="1.0" standalone="no"?>
<!DOCTYPE svg PUBLIC "-//W3C//DTD SVG 20010904//EN"
 "http://www.w3.org/TR/2001/REC-SVG-20010904/DTD/svg10.dtd">
<svg version="1.0" xmlns="http://www.w3.org/2000/svg"
 width="1080.000000pt" height="1920.000000pt" viewBox="0 0 1080.000000 1920.000000"
 preserveAspectRatio="xMidYMid meet">

<g transform="translate(0.000000,1920.000000) scale(0.100000,-0.100000)"
fill="#000000" stroke="none">
<path d="M6002 18663 c-17 -27 -33 -61 -37 -78 -5 -28 -5 -29 5 -5 6 13 24 48
41 77 38 66 32 69 -9 6z"/>
<path d="M6695 18651 l-60 -6 63 -8 c49 -6 67 -5 84 7 l22 16 -24 -2 c-14 -1
-52 -4 -85 -7z"/>
<path d="M5946 18505 c-18 -27 -20 -35 -8 -35 4 0 16 14 25 30 22 36 6 41 -17
5z"/>
<path d="M6135 18338 c-85 -75 -204 -250 -241 -353 -11 -33 -23 -67 -26 -75
-3 -8 -16 -49 -28 -90 -11 -41 -25 -89 -30 -106 -6 -17 -10 -40 -10 -52 0 -28
-28 -42 -83 -42 -41 0 -48 4 -81 44 -20 25 -57 84 -81 132 -52 101 -58 96 -14
-16 20 -52 45 -96 75 -128 24 -28 44 -55 44 -61 0 -14 0 -14 45 5 52 21 153 6
201 -31 48 -36 99 -109 124 -173 36 -95 20 -223 -41 -332 -22 -39 -88 -100
-108 -100 -5 0 -14 -7 -19 -16 -14 -25 -116 -45 -183 -35 -45 6 -68 16 -103
45 -61 50 -116 161 -116 234 0 28 -4 54 -10 57 -6 4 -10 -18 -10 -59 0 -54 6
-78 35 -138 19 -40 33 -73 32 -74 -1 -1 -51 -14 -112 -28 -118 -29 -338 -106
-460 -161 -129 -59 -221 -129 -377 -286 -82 -82 -148 -155 -148 -163 0 -7 -7
-19 -16 -27 -13 -11 -14 -9 -9 14 9 35 -8 35 -24 0 -8 -18 -9 -29 -1 -37 17
-17 12 -26 -16 -26 -21 0 -24 -4 -19 -20 4 -13 2 -20 -7 -20 -7 0 -30 9 -51
20 -38 21 -105 26 -135 11 -9 -5 -33 -16 -53 -24 -59 -25 -104 -72 -135 -139
-26 -58 -29 -72 -28 -178 1 -130 18 -209 66 -304 35 -69 104 -166 118 -166 15
0 12 -53 -5 -76 -8 -13 -39 -28 -77 -38 -305 -83 -634 -236 -808 -375 -368
-294 -627 -590 -927 -1061 -96 -149 -257 -437 -301 -535 -109 -246 -156 -370
-193 -515 -81 -313 -92 -642 -28 -865 23 -82 112 -238 162 -283 l25 -24 48 34
c68 47 334 216 423 268 71 42 74 43 88 24 17 -23 14 -26 -168 -161 -361 -266
-755 -661 -1034 -1038 -460 -621 -782 -1359 -919 -2105 -257 -1404 74 -2835
919 -3975 312 -422 715 -816 1152 -1126 1237 -879 2820 -1159 4293 -759 599
163 1188 449 1695 825 467 346 911 816 1228 1301 710 1085 979 2380 762 3669
-115 679 -383 1355 -770 1940 -205 311 -379 521 -664 805 -254 253 -504 461
-759 630 l-23 15 34 55 c20 34 39 54 50 54 31 -3 231 -159 347 -271 64 -62
118 -113 121 -113 14 0 104 149 153 251 93 196 146 433 146 653 0 101 -19 262
-49 411 -13 65 -99 311 -140 400 -156 339 -506 818 -798 1093 -146 138 -253
221 -427 332 -154 98 -224 135 -366 195 -63 27 -121 53 -127 58 -9 7 6 27 57
74 38 35 82 87 98 116 38 67 67 207 59 283 -7 70 -48 156 -91 191 l-33 26 5
91 c4 86 -9 201 -26 218 -4 4 -7 -54 -7 -129 l0 -136 -102 -1 c-55 -1 -99 2
-97 5 2 4 -8 26 -21 50 -14 24 -33 60 -43 79 -24 48 -73 123 -87 135 -7 6 -27
33 -45 60 -152 229 -412 452 -705 605 -127 65 -142 77 -128 91 16 16 5 39 -17
39 -31 0 -34 20 -7 48 13 15 36 46 51 70 15 24 34 42 44 42 10 0 27 7 38 15
18 14 17 14 -13 15 -31 0 -32 1 -25 33 19 86 -9 256 -53 324 -8 12 -15 24 -15
27 0 2 48 33 106 67 103 62 184 134 184 164 0 27 -46 48 -95 43 -25 -3 -42 -2
-40 3 3 4 41 35 84 67 85 66 208 128 271 138 44 7 56 34 15 34 -39 0 -243
-103 -315 -159 -95 -74 -286 -258 -277 -267 4 -4 24 8 45 28 98 94 207 149
266 134 61 -15 10 -71 -131 -142 -52 -27 -97 -52 -99 -56 -10 -16 -46 -7 -82
22 -21 16 -55 32 -79 36 -31 5 -43 11 -43 23 0 26 68 259 96 331 53 133 114
229 217 337 38 40 67 73 65 73 -3 0 -27 -19 -53 -42z m-651 -1463 c-4 -8 -1
-15 5 -15 6 0 11 -4 11 -10 0 -5 -7 -10 -15 -10 -9 0 -15 9 -15 25 0 14 4 25
10 25 5 0 7 -7 4 -15z m-254 -42 c0 -5 -5 -15 -10 -23 -8 -12 -10 -11 -10 8 0
12 5 22 10 22 6 0 10 -3 10 -7z m-60 -23 c0 -5 -8 -10 -17 -10 -15 0 -16 2 -3
10 19 12 20 12 20 0z m94 -15 c-4 -8 -11 -12 -16 -9 -6 4 -5 10 3 15 19 12 19
11 13 -6z m216 5 c0 -5 -5 -10 -11 -10 -5 0 -7 5 -4 10 3 6 8 10 11 10 2 0 4
-4 4 -10z m-305 -20 c3 -5 1 -10 -4 -10 -6 0 -11 5 -11 10 0 6 2 10 4 10 3 0
8 -4 11 -10z m-41 -7 c4 -5 24 -13 44 -19 37 -12 36 -12 -28 -13 -36 -1 -75
-4 -87 -7 -37 -10 -26 12 15 29 46 19 47 19 56 10z m196 -3 c0 -5 -5 -10 -11
-10 -5 0 -7 5 -4 10 3 6 8 10 11 10 2 0 4 -4 4 -10z m-55 -45 c39 -17 21 -18
-25 0 -19 7 -28 14 -20 14 8 0 29 -6 45 -14z m-275 1 c0 -2 -7 -7 -16 -10 -8
-3 -12 -2 -9 4 6 10 25 14 25 6z m-50 -20 c0 -2 -17 -14 -37 -27 -21 -12 -48
-31 -60 -42 -13 -11 -23 -16 -23 -11 0 12 54 54 90 71 31 14 30 14 30 9z m533
-33 c-4 -10 -9 -11 -19 -2 -19 15 -18 18 5 16 11 -1 17 -6 14 -14z m87 -3 c0
-5 -2 -10 -4 -10 -3 0 -8 5 -11 10 -3 6 -1 10 4 10 6 0 11 -4 11 -10z m160
-24 c0 -11 -19 -15 -25 -6 -3 5 1 10 9 10 9 0 16 -2 16 -4z m-564 -455 c100
-46 157 -186 122 -302 -13 -46 -28 -51 -28 -10 0 59 -79 121 -152 121 -45 0
-68 -15 -39 -25 17 -5 21 -13 19 -33 -2 -23 -8 -27 -33 -27 -23 0 -31 5 -33
23 -5 30 -17 28 -44 -10 -32 -46 -32 -134 0 -177 12 -16 22 -32 22 -35 0 -11
-85 26 -117 50 -101 77 -101 257 0 363 71 75 195 102 283 62z m1031 -120 c69
-35 123 -138 123 -235 0 -45 -36 -132 -66 -158 -30 -25 -95 -55 -138 -63 l-40
-7 37 41 c20 22 39 55 42 75 17 87 -60 176 -152 176 -53 0 -68 -11 -43 -33 22
-19 17 -43 -11 -52 -24 -8 -39 1 -39 25 0 29 -26 14 -44 -25 -9 -18 -16 -46
-16 -62 0 -22 -2 -25 -10 -13 -15 24 -12 133 7 189 18 58 70 124 116 147 69
36 159 34 234 -5z m-1532 -351 c-6 -10 6 -14 35 -11 8 1 -3 -8 -24 -19 -47
-24 -52 -25 -37 -6 8 10 9 16 1 21 -17 11 -11 25 11 25 11 0 17 -4 14 -10z
m-48 -36 c-3 -4 -14 -3 -24 0 -15 6 -15 8 -3 16 16 10 39 -4 27 -16z m133 -14
c0 -5 -2 -10 -4 -10 -3 0 -8 5 -11 10 -3 6 -1 10 4 10 6 0 11 -4 11 -10z m-10
-35 c0 -8 -7 -15 -15 -15 -16 0 -20 12 -8 23 11 12 23 8 23 -8z m-130 -11 c0
-8 -4 -12 -10 -9 -5 3 -10 10 -10 16 0 5 5 9 10 9 6 0 10 -7 10 -16z m75 6 c3
-5 -1 -10 -9 -10 -9 0 -16 5 -16 10 0 6 4 10 9 10 6 0 13 -4 16 -10z m717 -52
c11 9 20 9 39 0 20 -9 25 -19 25 -50 0 -21 -2 -38 -5 -38 -4 0 -12 -15 -20
-32 -18 -42 -29 -49 -58 -35 -17 8 -27 7 -36 -2 -9 -10 -9 -11 4 -6 10 4 20 2
24 -4 6 -10 1 -12 -37 -15 -7 -1 -16 -5 -19 -9 -8 -11 -54 8 -80 34 -19 19
-20 25 -9 42 10 17 10 19 -4 14 -9 -4 -16 -4 -16 -2 0 15 48 76 67 86 12 7 20
16 16 22 -3 5 3 6 16 2 11 -3 28 -2 38 3 13 8 20 6 29 -6 9 -13 15 -14 26 -4z
m68 -133 c0 -8 -7 -15 -15 -15 -13 0 -14 3 -3 15 16 18 18 18 18 0z m-423
-449 c292 -99 613 -105 902 -16 36 10 67 18 69 16 6 -7 -62 -53 -124 -84 -108
-54 -201 -74 -379 -79 -135 -4 -175 -2 -259 15 -157 33 -291 108 -340 192
l-18 32 39 -26 c21 -14 70 -37 110 -50z m278 -1236 c-3 -5 -11 -10 -16 -10 -6
0 -7 5 -4 10 3 6 11 10 16 10 6 0 7 -4 4 -10z m590 -25 c25 -24 33 -69 16 -79
-14 -9 -71 49 -71 71 0 40 21 43 55 8z m-174 -40 c39 -21 29 -35 -24 -35 -50
1 -91 25 -67 40 22 14 57 12 91 -5z m389 4 c0 -19 -58 -69 -79 -69 -40 0 -18
56 29 73 26 9 50 8 50 -4z m164 -24 c27 -25 36 -75 14 -75 -21 0 -68 53 -68
77 0 30 20 29 54 -2z m216 -13 c0 -24 -27 -48 -62 -57 -36 -9 -38 16 -3 50 29
30 65 33 65 7z m-464 -82 c29 -16 60 -40 70 -53 30 -37 42 -40 73 -17 33 23
104 50 130 49 9 0 -2 -7 -24 -16 -22 -9 -58 -28 -79 -43 l-39 -27 -2 -119 c-2
-140 -15 -191 -50 -200 -35 -9 -73 3 -79 24 -10 31 30 198 58 238 14 21 26 43
26 49 0 19 -59 83 -107 114 -59 39 -44 40 23 1z m677 3 c4 -3 3 -11 -4 -19
-17 -21 -129 -16 -129 6 0 23 101 33 133 13z m-753 -13 c13 -9 13 -11 0 -20
-25 -17 -58 -23 -95 -16 -37 7 -48 31 -17 39 32 9 97 7 112 -3z m84 -92 c22
-31 20 -58 -3 -58 -34 0 -76 71 -55 93 9 9 41 -10 58 -35z m396 27 c17 -9 30
-19 30 -24 0 -30 -94 -16 -125 19 -18 20 -17 20 24 20 23 0 55 -7 71 -15z
m-135 -35 c4 -6 -7 -24 -24 -40 -34 -34 -71 -40 -71 -12 0 38 78 80 95 52z
m-275 -110 c0 -5 -4 -10 -9 -10 -6 0 -13 5 -16 10 -3 6 1 10 9 10 9 0 16 -4
16 -10z m205 -20 c-3 -5 -10 -10 -16 -10 -5 0 -9 5 -9 10 0 6 7 10 16 10 8 0
12 -4 9 -10z m-1007 -128 c6 -18 -60 -52 -100 -52 -45 0 -48 12 -12 45 37 35
101 39 112 7z m2491 8 c18 10 64 -1 79 -19 11 -14 11 -14 6 2 -8 22 16 23 55
2 16 -8 32 -11 36 -7 4 4 4 -3 1 -15 -4 -12 -2 -24 4 -28 5 -3 10 1 10 9 0 19
5 20 31 6 10 -6 39 -13 64 -15 25 -3 53 -9 62 -14 10 -5 39 -20 66 -32 46 -22
169 -133 214 -194 105 -141 114 -155 96 -155 -5 0 -17 7 -27 15 -28 22 -37 18
-30 -10 3 -14 2 -25 -2 -25 -5 0 -52 48 -104 106 -52 59 -117 125 -144 146
-91 73 -378 191 -496 205 -28 3 -47 9 -43 14 12 11 55 16 84 8 15 -4 32 -4 38
1z m-4872 -141 c-25 -14 -11 -32 14 -18 12 6 23 8 27 5 8 -8 -37 -54 -60 -62
-10 -3 -18 -10 -18 -16 0 -6 6 -6 15 2 9 7 18 11 20 8 3 -2 -32 -31 -77 -64
-228 -166 -432 -427 -548 -701 -24 -58 -46 -71 -35 -23 6 28 5 30 -24 30 -17
0 -31 4 -31 10 0 19 73 186 111 253 116 205 352 449 539 555 30 18 62 32 70
32 12 -1 11 -3 -3 -11z m163 1 c0 -8 -101 -60 -117 -60 -15 0 16 24 60 45 60
29 57 28 57 15z m2978 -170 c286 -25 649 -87 832 -143 l75 -23 3 -39 c4 -66
-3 -68 -101 -40 -870 253 -1861 256 -2758 11 -67 -18 -118 -28 -116 -22 4 13
59 32 261 90 142 42 191 53 461 106 61 12 225 35 365 50 330 36 648 39 978 10z
m2442 -217 c0 -13 -3 -13 -15 -3 -8 7 -15 19 -15 27 0 13 3 13 15 3 8 -7 15
-19 15 -27z m-6320 -543 c0 -5 -4 -10 -10 -10 -5 0 -10 5 -10 10 0 6 5 10 10
10 6 0 10 -4 10 -10z m5537 -1696 c80 -8 225 -50 307 -88 257 -119 477 -375
560 -653 47 -158 48 -175 44 -1408 -4 -1241 -1 -1158 -51 -1331 -39 -138 -165
-335 -280 -440 -131 -120 -229 -180 -369 -227 -175 -59 -132 -57 -1464 -57
l-1223 0 -88 -103 c-48 -57 -131 -154 -183 -217 -52 -62 -138 -163 -190 -224
-52 -62 -138 -163 -190 -226 -319 -379 -342 -404 -400 -423 -47 -16 -63 -17
-105 -8 -93 21 -145 75 -164 169 -7 34 -11 226 -11 542 l0 490 -335 0 c-365 0
-409 5 -571 60 -106 36 -193 84 -286 159 -223 178 -345 386 -398 679 -19 101
-20 158 -20 1206 0 1182 0 1174 52 1351 81 278 299 536 554 656 102 48 253 90
364 99 94 9 4364 3 4447 -6z"/>
<path d="M3155 10323 c-118 -16 -295 -91 -395 -166 -176 -133 -294 -309 -358
-537 l-27 -95 -3 -1130 c-2 -1002 -1 -1140 13 -1218 29 -157 68 -257 148 -381
120 -183 288 -310 507 -382 l85 -28 433 -3 432 -4 0 -578 0 -578 24 -23 c14
-12 37 -22 52 -22 31 0 42 10 196 193 53 63 163 193 245 289 192 226 450 531
536 634 l67 81 1288 6 c1173 5 1292 7 1342 22 189 59 323 139 441 265 121 130
203 289 240 467 18 85 19 157 19 1225 0 1077 -1 1139 -19 1221 -44 196 -126
347 -265 484 -121 120 -242 191 -411 242 -57 17 -177 18 -2310 19 -1237 1
-2263 -1 -2280 -3z"/>
<path d="M6809 18285 c43 -59 81 -119 81 -131 0 -6 10 -9 23 -7 15 3 46 -14
103 -56 90 -66 153 -133 219 -233 25 -36 49 -69 54 -72 5 -3 15 17 21 46 15
59 8 176 -14 253 -18 64 -19 44 -2 -75 8 -52 12 -97 11 -101 -2 -3 -6 -25 -9
-48 -5 -40 -16 -70 -16 -42 0 16 -71 113 -129 176 -45 50 -145 128 -219 174
-21 12 -46 35 -55 50 -8 14 -32 42 -53 61 -35 33 -36 33 -15 5z"/>
<path d="M5564 18198 c9 -41 19 -68 27 -68 12 0 12 1 -6 44 -15 36 -26 48 -21
24z"/>
<path d="M6590 18187 c-3 -3 -57 -7 -120 -10 -116 -6 -194 -17 -240 -36 -33
-13 -5 -14 42 -1 20 6 85 13 145 15 123 5 319 21 287 23 -12 1 -41 5 -65 8
-24 3 -46 4 -49 1z"/>
<path d="M5631 18154 c0 -11 3 -14 6 -6 3 7 2 16 -1 19 -3 4 -6 -2 -5 -13z"/>
<path d="M6809 18134 c71 -32 101 -39 101 -24 0 6 -4 9 -9 6 -5 -3 -34 5 -65
19 -31 14 -62 25 -69 24 -7 0 13 -11 42 -25z"/>
<path d="M5617 18085 c20 -41 28 -39 18 4 -4 17 -13 31 -21 31 -11 0 -11 -6 3
-35z"/>
<path d="M6610 18086 c0 -2 7 -7 16 -10 8 -3 12 -2 9 4 -6 10 -25 14 -25 6z"/>
<path d="M5631 18010 c0 -14 4 -34 9 -45 7 -17 9 -16 9 10 0 17 -4 37 -9 45
-8 12 -10 10 -9 -10z"/>
<path d="M6389 18015 c-104 -26 -216 -85 -329 -174 -67 -53 -103 -91 -96 -99
4 -4 15 3 24 14 21 26 151 122 219 162 48 29 221 92 250 92 7 0 13 5 13 10 0
12 -11 12 -81 -5z"/>
<path d="M6560 18020 c0 -12 44 -12 80 0 20 6 14 8 -27 9 -29 1 -53 -3 -53 -9z"/>
<path d="M5482 17970 c0 -14 2 -19 5 -12 2 6 2 18 0 25 -3 6 -5 1 -5 -13z"/>
<path d="M5490 17920 c0 -11 4 -20 9 -20 5 0 7 9 4 20 -3 11 -7 20 -9 20 -2 0
-4 -9 -4 -20z"/>
<path d="M5692 17501 c-55 -26 -98 -72 -131 -141 -46 -97 -29 -249 37 -324 26
-28 92 -56 138 -56 52 0 137 42 169 84 105 137 90 333 -31 416 -60 42 -121 49
-182 21z m68 -101 c26 -26 25 -51 -1 -84 -27 -34 -64 -32 -92 6 -17 23 -19 31
-9 53 20 44 71 56 102 25z"/>
<path d="M7430 16304 c0 -8 5 -12 10 -9 6 4 8 11 5 16 -9 14 -15 11 -15 -7z"/>
<path d="M7422 16219 c-7 -28 -12 -56 -12 -62 1 -20 40 74 40 94 0 37 -17 18
-28 -32z"/>
<path d="M7202 16230 c0 -14 2 -19 5 -12 2 6 2 18 0 25 -3 6 -5 1 -5 -13z"/>
<path d="M7210 16188 c0 -9 5 -20 10 -23 13 -8 13 5 0 25 -8 13 -10 13 -10 -2z"/>
</g>
</svg>
