<svg xmlns="http://www.w3.org/2000/svg" xmlns:xlink="http://www.w3.org/1999/xlink" viewBox="0 0 262.17 271.41"><defs><style>.cls-1{fill:url(#linear-gradient);}.cls-2{fill:#636466;}</style><linearGradient id="linear-gradient" x1="-18.53" y1="135.71" x2="277.01" y2="135.71" gradientUnits="userSpaceOnUse"><stop offset="0" stop-color="#047c3f"/><stop offset="0.7" stop-color="#7fc343"/><stop offset="0.92" stop-color="#87c441"/><stop offset="1" stop-color="#8cc540"/></linearGradient></defs><g id="Layer_2" data-name="Layer 2"><g id="Layer_1-2" data-name="Layer 1"><path class="cls-1" d="M217.16,7.54Q224.24,0,236.12,0t19,7.54a24.89,24.89,0,0,1,7.08,17.59,24.88,24.88,0,0,1-7.08,17.59q-7.09,7.55-19,7.54t-19-7.54a24.88,24.88,0,0,1-7.08-17.59,24.89,24.89,0,0,1,7.08-17.59M176.28,74.09C173.5,75,170.2,78,161.73,88.56s-15,20.54-16,21.7a.5.5,0,0,1-.09.14l-46,62.76L76.12,203.53,43.48,246.09q-9.93,13.33-27,18.84L6.16,268.36v3.05H71.22v-3.05a19,19,0,0,1-10.1-7,18.43,18.43,0,0,1-3.61-11.11A23.64,23.64,0,0,1,63,235.11l20.89-27,20.55-27.41L164.84,99.1c6.85-8.66,15-18.5,26.16-20.15L202.16,78V74.09Z"/><path class="cls-2" d="M183.5,267.66a55.94,55.94,0,0,1-34.91-23.29l-44.18-63.71L83.85,208.07l19.54,28.06a73.36,73.36,0,0,1,7.18,13,29.05,29.05,0,0,1,2.73,11c0,3.19-1,5-3,5.46l-11.67,2.78v3.05h87.7v-3.05Z"/><path class="cls-2" d="M99.64,173.16l-16.43-24A29.08,29.08,0,0,1,77.37,132a17.39,17.39,0,0,1,2.55-9.72A12.79,12.79,0,0,1,87.65,117v-3.1H0V117l2.36.7c15.1,3.19,26.86,10.92,35.28,23.29l40.75,59.54-2.27,3Z"/></g></g></svg>