<svg width="136" height="25" viewBox="0 0 136 25" fill="none" xmlns="http://www.w3.org/2000/svg">
<g clip-path="url(#clip0_6165_20)">
<path d="M4.81997 8.98242C6.11638 9.01033 7.25425 9.23827 8.23359 9.66622C9.16109 10.0592 9.99291 10.645 10.673 11.384C11.3254 12.1062 11.8261 12.9502 12.1458 13.8667C12.4777 14.8099 12.6454 15.8021 12.6419 16.8011C12.6448 17.7938 12.4806 18.78 12.1561 19.719C11.8439 20.6295 11.3475 21.467 10.6973 22.1802C10.017 22.9134 9.19361 23.5018 8.27706 23.9093C7.31221 24.3508 6.1884 24.5851 4.90563 24.6122H0V8.98242H4.81997ZM4.67295 23.8345C5.33058 23.8476 5.98374 23.7244 6.59071 23.4729C7.12336 23.2448 7.60918 22.9214 8.02392 22.5189C8.42675 22.1247 8.76457 21.67 9.02499 21.1716C9.28305 20.6839 9.49697 20.1745 9.66424 19.6492C9.82195 19.1523 9.937 18.643 10.0082 18.1268C10.0709 17.6876 10.1047 17.2447 10.1092 16.8011C10.1036 16.3583 10.069 15.9163 10.0056 15.4779C9.93297 14.962 9.81795 14.4528 9.66168 13.9555C9.4959 13.4249 9.28194 12.9102 9.02243 12.4179C8.76377 11.9218 8.42569 11.4707 8.02136 11.082C7.60461 10.6843 7.11914 10.3641 6.58815 10.1369C5.98118 9.88538 5.32802 9.76224 4.67039 9.77533H2.53145V23.8345H4.67295Z" fill="#636466"/>
<path d="M19.5614 8.60059L26.0818 24.6186H23.3969L21.0879 18.7904H16.2028L13.8733 24.6186H13.041L19.5614 8.60059ZM20.776 18.0064L18.6741 12.6603L16.5275 18.0064H20.776Z" fill="#636466"/>
<path d="M36.4551 15.8585L41.9246 24.6211H38.947L34.8148 18.0241L29.8529 24.6211H28.9209L34.4095 17.3657L29.1676 8.98496H32.1645L36.0332 15.2013L40.7292 8.98242H41.6612L36.4551 15.8585Z" fill="#636466"/>
<path d="M44.7598 8.98242H47.2912V24.6185H44.7598V8.98242Z" fill="#636466"/>
<path d="M61.7115 25.0004L61.691 24.9801L51.7263 13.424V24.6185H50.9375V8.60059L60.9214 20.0971V8.98245H61.7115V25.0004Z" fill="#636466"/>
<path d="M81.1945 8.98242H82.0255L75.5243 25.0004L69.0039 8.98242H71.878L76.395 20.9407L81.1945 8.98242Z" fill="#636466"/>
<path d="M84.4561 8.98242H86.9875V24.6185H84.4561V8.98242Z" fill="#636466"/>
<path d="M92.0704 11.4957C92.0502 12.1738 92.2491 12.8406 92.6381 13.3986C93.0292 13.935 93.5039 14.406 94.0444 14.7941C94.6277 15.2186 95.236 15.6079 95.8663 15.96C96.5015 16.316 97.1107 16.7157 97.6894 17.1564C98.2368 17.5726 98.7118 18.0748 99.0958 18.6432C99.4742 19.2065 99.6635 19.8899 99.6635 20.6934C99.6635 22.0736 99.1874 23.1355 98.2354 23.8789C97.2833 24.6224 95.9622 24.9941 94.272 24.9941C93.7022 25.0039 93.1345 24.9225 92.5908 24.753C92.155 24.6143 91.7343 24.4324 91.3353 24.2101C90.9523 23.9862 90.5984 23.7165 90.2818 23.407L90.8085 22.8234C91.1052 23.0872 91.4312 23.3167 91.7802 23.5072C92.1343 23.6998 92.508 23.8546 92.895 23.969C93.3542 24.1071 93.8319 24.1747 94.3116 24.1695C95.3523 24.1695 96.1425 23.958 96.682 23.5351C97.2215 23.1122 97.4917 22.4927 97.4926 21.6766C97.4933 21.1578 97.2938 20.6584 96.9351 20.281C96.5212 19.8363 96.0556 19.442 95.5479 19.1063C94.9939 18.7308 94.3973 18.3552 93.758 17.9797C93.125 17.6098 92.5261 17.1853 91.9681 16.7111C91.4254 16.2567 90.9577 15.7208 90.5822 15.1227C90.1985 14.4825 90.0052 13.7475 90.0248 13.0028C90.0248 11.565 90.4433 10.4731 91.2803 9.72715C92.1173 8.98119 93.3395 8.60567 94.947 8.60059C95.3636 8.59986 95.7786 8.65144 96.1821 8.7541C96.559 8.84962 96.9279 8.97389 97.2854 9.12581C97.6152 9.26451 97.9308 9.43445 98.2277 9.63327C98.4806 9.80427 98.7239 9.98893 98.9564 10.1864L98.4297 10.7687C98.2331 10.5909 98.0247 10.4265 97.8058 10.2765C97.5513 10.1026 97.2797 9.95465 96.9952 9.83499C96.6826 9.70307 96.3598 9.59617 96.0299 9.51529C95.2393 9.32804 94.4139 9.342 93.6302 9.55589C93.3036 9.64858 92.9993 9.80564 92.7352 10.0177C92.5127 10.1982 92.3373 10.4293 92.2238 10.6913C92.1185 10.9464 92.0663 11.22 92.0704 11.4957Z" fill="#636466"/>
<path d="M112.527 8.98242V9.76898H107.767V24.6185H105.235V9.76898H100.476V8.98242H112.527Z" fill="#636466"/>
<path d="M118.622 8.60059L125.143 24.6186H122.45L120.141 18.7904H115.26L112.93 24.6186H112.101L118.622 8.60059ZM119.837 18.0064L117.731 12.6603L115.585 18.0064H119.837Z" fill="#636466"/>
<path d="M128.405 11.4948C128.384 12.173 128.583 12.8398 128.972 13.3978C129.364 13.9335 129.839 14.4045 130.379 14.7933C130.962 15.218 131.571 15.6074 132.202 15.9592C132.837 16.3151 133.445 16.7149 134.024 17.1555C134.572 17.5711 135.047 18.0734 135.43 18.6424C135.808 19.2056 135.998 19.889 135.998 20.6925C135.998 22.0728 135.522 23.1347 134.57 23.8781C133.618 24.6215 132.296 24.9932 130.606 24.9932C130.036 25.0029 129.469 24.9215 128.925 24.7522C128.489 24.6132 128.069 24.4313 127.669 24.2092C127.287 23.985 126.933 23.7154 126.616 23.4061L127.143 22.8226C127.44 23.0864 127.766 23.3158 128.116 23.5064C128.469 23.699 128.843 23.8538 129.229 23.9682C129.689 24.1062 130.167 24.1738 130.647 24.1686C131.687 24.1686 132.477 23.9572 133.016 23.5343C133.556 23.1114 133.826 22.4919 133.827 21.6757C133.827 21.1569 133.628 20.6576 133.269 20.2802C132.856 19.8352 132.39 19.4408 131.882 19.1054C131.329 18.7299 130.732 18.3544 130.092 17.9789C129.459 17.609 128.86 17.1844 128.302 16.7102C127.758 16.2533 127.29 15.7143 126.915 15.113C126.532 14.4725 126.339 13.7377 126.358 12.9931C126.358 11.5553 126.777 10.4634 127.614 9.71742C128.452 8.97146 129.674 8.59594 131.28 8.59086C131.696 8.58914 132.111 8.63987 132.515 8.74183C132.892 8.83755 133.262 8.96182 133.62 9.11355C133.949 9.25224 134.264 9.42218 134.561 9.62101C134.814 9.79234 135.057 9.97698 135.291 10.1741L134.764 10.7564C134.566 10.5788 134.356 10.4144 134.136 10.2642C133.881 10.0908 133.61 9.94294 133.326 9.82272C133.014 9.69495 132.692 9.59187 132.364 9.51444C131.574 9.32719 130.748 9.34115 129.964 9.55504C129.638 9.64802 129.334 9.80505 129.069 10.0168C128.848 10.1982 128.673 10.4291 128.558 10.6905C128.453 10.9457 128.401 11.2192 128.405 11.4948Z" fill="#636466"/>
<path d="M47.916 4.11042C47.4574 4.59505 46.8446 4.83736 46.0775 4.83736C45.3104 4.83736 44.6967 4.59505 44.2364 4.11042C43.7913 3.65841 43.5445 3.05 43.5499 2.41805C43.5447 1.78611 43.7915 1.17776 44.2364 0.725667C44.695 0.241889 45.3087 0 46.0775 0C46.8463 0 47.4591 0.241889 47.916 0.725667C48.361 1.17776 48.6078 1.78611 48.6026 2.41805C48.6079 3.05 48.3611 3.65841 47.916 4.11042Z" fill="url(#paint0_linear_6165_20)"/>
<path d="M46.0772 5.64941V6.03001L44.9943 6.12008C43.9101 6.27993 43.1213 7.22634 42.4578 8.05985L36.5971 15.909L34.6039 18.5465L32.5787 21.1485C32.2358 21.5561 32.048 22.0702 32.0481 22.6011C32.0451 22.9858 32.168 23.3611 32.3985 23.6706C32.6398 23.9983 32.9845 24.2367 33.3778 24.348V24.6424H27.0684V24.348L28.0656 24.0182C29.1112 23.705 30.0286 23.0685 30.684 22.2015L33.8496 18.1063L36.1304 15.1884L40.595 9.14835L40.6039 9.13439C40.6973 9.02402 41.3301 8.07127 42.1509 7.04747C42.9717 6.02367 43.2926 5.73949 43.5573 5.65195L46.0772 5.64941Z" fill="url(#paint1_linear_6165_20)"/>
</g>
<defs>
<linearGradient id="paint0_linear_6165_20" x1="15.4867" y1="39.6389" x2="49.2046" y2="-2.0267" gradientUnits="userSpaceOnUse">
<stop stop-color="#047C3F"/>
<stop offset="0.7" stop-color="#7FC343"/>
<stop offset="0.92" stop-color="#87C441"/>
<stop offset="1" stop-color="#8CC540"/>
</linearGradient>
<linearGradient id="paint1_linear_6165_20" x1="18.3349" y1="38.9565" x2="52.4721" y2="-3.22864" gradientUnits="userSpaceOnUse">
<stop stop-color="#047C3F"/>
<stop offset="0.7" stop-color="#7FC343"/>
<stop offset="0.92" stop-color="#87C441"/>
<stop offset="1" stop-color="#8CC540"/>
</linearGradient>
<clipPath id="clip0_6165_20">
<rect width="136" height="25" fill="white"/>
</clipPath>
</defs>
</svg>
